<svg version="1.1" id="Calque_1" xmlns="http://www.w3.org/2000/svg" x="0" y="0" viewBox="0 0 229.1 186.7" xml:space="preserve"><style>.st0{fill:#fff}</style><path class="st0" d="M0 145.3L141.2.3l87.9 186.4z"/><path fill="#f1f1f1" d="M141.3 0l-9.9 128.6 97.7 58.1z"/><path class="st0" d="M229.1 186.7l-97.7-58.1L0 145.3z"/><path fill="#f8f7f7" d="M141.3 0l-9.9 128.6L0 145.3z"/><path d="M110.5 127.6c0-3.5-.6-4-5-4-2.3 0-3.4.2-4 .8-.5.5-.7 1.4-.8 3.3h9.8zm45.4-4.1c-2.4 0-3.4.3-4 1-.7.9-.9 2.8-.9 5.4 0 2.9.1 4.8.8 5.7.6.7 1.6 1 4 1 4.6 0 5.5-.5 5.5-6.7 0-2.9-.3-4.5-1.1-5.3-.6-.7-1.8-1.1-4.3-1.1zm-24.9.1c-2.5 0-3.8.3-4.4 1.1-.7.8-1 2.4-1 5.4 0 3.1.3 4.6 1 5.4.7.8 1.9 1.1 4.4 1.1 2.5 0 3.8-.3 4.4-1.1.7-.8 1-2.4 1-5.4 0-3.1-.3-4.6-1-5.4-.7-.8-1.9-1.1-4.4-1.1zm50.3 0c-2.5 0-3.8.3-4.4 1.1-.7.8-1 2.4-1 5.4 0 3.1.3 4.6 1 5.4.7.8 1.9 1.1 4.4 1.1 2.5 0 3.8-.3 4.4-1.1.7-.8 1-2.4 1-5.4 0-3.1-.3-4.6-1-5.4-.6-.8-1.9-1.1-4.4-1.1z" fill="none"/><path d="M44 116.2h7.9v24.7H58v-24.7h7.9v-5.1H44zm38.1 2.5c-2.5 0-4.8.1-6.4 1.3v-8.9h-5.9V141h5.9v-12.4c0-3.9 1-4.8 4.9-4.8 4.4 0 4.8.9 4.8 4.6V141h5.9v-14c0-3.2-.6-5.1-1.9-6.3-1.4-1.4-3.6-2-7.3-2zm28.4 15.5c0 1.8 0 2.4-4.9 2.4-2.1 0-3.3-.2-3.9-.9-.6-.6-.9-1.9-.9-3.7h15.6v-1.2c0-.5.1-1 .1-1.5 0-3.7-.4-6.6-2.1-8.3-1.6-1.6-4.1-2.3-8.7-2.3-4.1 0-7.2.4-9 2.3-1.8 1.9-2.1 5-2.1 9.1 0 9.2 2.2 11.4 11.2 11.4 4.4 0 6.9-.5 8.5-1.7 1.9-1.4 2.1-3.4 2.1-5.6h-5.9zm-4.9-10.7c4.4 0 4.9.5 5 4h-9.7c0-1.8.3-2.8.8-3.3.5-.4 1.6-.7 3.9-.7zm25.4-4.8c-4.7 0-7.3.7-9 2.3-1.7 1.7-2.4 4.3-2.4 9.1s.7 7.4 2.4 9.1c1.7 1.7 4.3 2.3 9 2.3s7.3-.7 9-2.3c1.7-1.7 2.4-4.3 2.4-9.1s-.7-7.4-2.4-9.1c-1.7-1.6-4.3-2.3-9-2.3zm4.4 16.8c-.7.8-1.9 1.1-4.4 1.1-2.5 0-3.8-.3-4.4-1.1-.7-.8-1-2.4-1-5.4 0-3.1.3-4.6 1-5.4.7-.8 1.9-1.1 4.4-1.1 2.5 0 3.8.3 4.4 1.1.7.8 1 2.4 1 5.4 0 3.1-.3 4.6-1 5.4z" fill="#17539f"/><path d="M161.6 120c-1.5-1.2-3.8-1.3-6.6-1.3-7.8 0-10 2.5-10 11.3 0 4.1.4 7.3 2.2 9.2 1.6 1.7 4.1 2.4 8.8 2.4 4.9 0 7.6-.7 9.3-2.5 1.9-2 2.3-5.1 2.3-9.1v-18.9h-5.8v8.9zm-5.7 16.7c-2.4 0-3.5-.3-4-1-.7-.9-.8-2.9-.8-5.7 0-2.6.1-4.5.9-5.4.6-.8 1.7-1 4-1 2.5 0 3.7.3 4.5 1.1.8.8 1.1 2.4 1.1 5.3-.2 6.1-1.1 6.7-5.7 6.7zm34.4-15.7c-1.7-1.7-4.3-2.3-9-2.3s-7.3.7-9 2.3c-1.7 1.7-2.4 4.3-2.4 9.1s.7 7.4 2.4 9.1c1.7 1.7 4.3 2.3 9 2.3s7.3-.7 9-2.3c1.7-1.7 2.4-4.3 2.4-9.1 0-4.7-.7-7.4-2.4-9.1zm-4.6 14.5c-.7.8-1.9 1.1-4.4 1.1-2.5 0-3.8-.3-4.4-1.1-.7-.8-1-2.4-1-5.4 0-3.1.3-4.6 1-5.4.7-.8 1.9-1.1 4.4-1.1 2.5 0 3.8.3 4.4 1.1.7.8 1 2.4 1 5.4 0 3.1-.3 4.6-1 5.4z" fill="#6abd9e"/></svg>